<svg xmlns="http://www.w3.org/2000/svg" width="52.371" height="52.371" viewBox="0 0 52.371 52.371">
  <g id="loading" transform="translate(-269 526)">
    <path id="Trazado_5" d="M22.186,0A22.186,22.186,0,1,1,0,22.186,22.186,22.186,0,0,1,22.186,0Z" transform="translate(273 -522)" fill="none" stroke="#e0e7ff" stroke-width="8"/>
    <path id="Trazado_6" d="M273-499.8a29.777,29.777,0,0,1,.777-5.812,28.327,28.327,0,0,1,2.314-5.452,33.57,33.57,0,0,1,2.685-3.7,34.583,34.583,0,0,1,3.991-3.438,23.071,23.071,0,0,1,3.744-2.016,15.762,15.762,0,0,1,2.471-.913l.894-.235.765-.145a43.773,43.773,0,0,1,5.281-.45" transform="translate(0 -0.018)" fill="none" stroke="#6366f1" stroke-linecap="round" stroke-width="8"/>
  </g>
</svg>
