<svg xmlns="http://www.w3.org/2000/svg" width="40" height="40" viewBox="0 0 106.657 106.657">
    <path id="account_circle_24dp_E8EAED_FILL0_wght400_GRAD0_opsz24" d="M22.766,55.948a55.648,55.648,0,0,1,15.2-8.2,53.122,53.122,0,0,1,35.2,0,55.647,55.647,0,0,1,15.2,8.2,41.22,41.22,0,0,0,7.266-12.4,41.8,41.8,0,0,0,2.6-14.8A41.127,41.127,0,0,0,85.76-1.447a41.127,41.127,0,0,0-30.2-12.466,41.127,41.127,0,0,0-30.2,12.466A41.127,41.127,0,0,0,12.9,28.75a41.8,41.8,0,0,0,2.6,14.8A41.22,41.22,0,0,0,22.766,55.948Zm32.8-21.865a18.033,18.033,0,0,1-13.265-5.4,18.033,18.033,0,0,1-5.4-13.265A18.033,18.033,0,0,1,42.3,2.153a18.033,18.033,0,0,1,13.265-5.4,18.033,18.033,0,0,1,13.265,5.4,18.033,18.033,0,0,1,5.4,13.265,18.033,18.033,0,0,1-5.4,13.265A18.033,18.033,0,0,1,55.563,34.083Zm0,48a51.929,51.929,0,0,1-20.8-4.2A53.245,53.245,0,0,1,6.434,49.548a51.929,51.929,0,0,1-4.2-20.8,51.929,51.929,0,0,1,4.2-20.8A53.245,53.245,0,0,1,34.765-20.379a51.929,51.929,0,0,1,20.8-4.2,51.929,51.929,0,0,1,20.8,4.2A53.245,53.245,0,0,1,104.692,7.952a51.929,51.929,0,0,1,4.2,20.8,51.929,51.929,0,0,1-4.2,20.8A53.245,53.245,0,0,1,76.361,77.879,51.929,51.929,0,0,1,55.563,82.079Zm0-10.666a42.3,42.3,0,0,0,13.332-2.066,40.156,40.156,0,0,0,11.466-5.933,40.156,40.156,0,0,0-11.466-5.933,44.04,44.04,0,0,0-26.664,0,40.156,40.156,0,0,0-11.466,5.933,40.156,40.156,0,0,0,11.466,5.933A42.3,42.3,0,0,0,55.563,71.413Zm0-48a7.752,7.752,0,0,0,8-8,8,8,0,1,0-16,0,7.752,7.752,0,0,0,8,8ZM55.563,15.418ZM55.563,63.414Z" transform="translate(-2.234 24.578)" fill="#1e1b4b"/>
</svg>
